{
	"asset":{
		"generator":"Khronos glTF Blender I/O v4.3.47",
		"version":"2.0"
	},
	"scene":0,
	"scenes":[
		{
			"name":"Scene",
			"nodes":[
				10
			]
		}
	],
	"nodes":[
		{
			"mesh":0,
			"name":"Base_Base_0"
		},
		{
			"children":[
				0
			],
			"name":"Base",
			"rotation":[
				0,
				-0.7071068286895752,
				-0.7071068286895752,
				5.3385093679025886e-08
			],
			"scale":[
				100.00003051757812,
				100.00001525878906,
				100.00001525878906
			],
			"translation":[
				2.684337854385376,
				-0.12458115816116333,
				67.8893814086914
			]
		},
		{
			"mesh":1,
			"name":"Display_iMac_0"
		},
		{
			"children":[
				2
			],
			"name":"Display",
			"rotation":[
				0,
				-0.6755903363227844,
				-0.7372772693634033,
				1.8778225197024767e-08
			],
			"scale":[
				100,
				99.99999237060547,
				99.99999237060547
			],
			"translation":[
				2.684337854385376,
				83.15935516357422,
				64.77539825439453
			]
		},
		{
			"mesh":2,
			"name":"Keyboard_Keyboard_0"
		},
		{
			"children":[
				4
			],
			"name":"Keyboard",
			"rotation":[
				-0.0011384669924154878,
				0.7104156017303467,
				0.7037810683250427,
				0.0007857171585783362
			],
			"scale":[
				100.0000228881836,
				99.99999237060547,
				99.99999237060547
			],
			"translation":[
				22.16293716430664,
				1.5659465789794922,
				-0.4766106605529785
			]
		},
		{
			"mesh":3,
			"name":"Mouse.001_Mouse_0"
		},
		{
			"children":[
				6
			],
			"name":"Mouse.001",
			"rotation":[
				-0.7070591449737549,
				0.008222749456763268,
				0.008222750388085842,
				0.707058846950531
			],
			"scale":[
				100,
				100.00000762939453,
				100.00001525878906
			],
			"translation":[
				-49.72929000854492,
				1.0549920797348022,
				2.455425262451172
			]
		},
		{
			"children":[
				1,
				3,
				5,
				7
			],
			"name":"RootNode"
		},
		{
			"children":[
				8
			],
			"name":"2da2326d0b3e4a7d9b49861455ee94a0.fbx",
			"rotation":[
				0.70710688829422,
				0,
				0,
				0.7071066498756409
			]
		},
		{
			"children":[
				9
			],
			"name":"Sketchfab_model",
			"rotation":[
				-0.70710688829422,
				0,
				0,
				0.7071066498756409
			],
			"scale":[
				0.05000000074505806,
				0.05000000819563866,
				0.05000000819563866
			]
		}
	],
	"materials":[
		{
			"doubleSided":true,
			"name":"Base.002",
			"pbrMetallicRoughness":{
				"baseColorTexture":{
					"index":0
				},
				"metallicFactor":0,
				"roughnessFactor":0.11723333597183228
			}
		},
		{
			"doubleSided":true,
			"name":"iMac.002",
			"pbrMetallicRoughness":{
				"baseColorTexture":{
					"index":1
				},
				"metallicRoughnessTexture":{
					"index":2
				},
				"roughnessFactor":0.5367652773857117
			}
		},
		{
			"doubleSided":true,
			"name":"Keyboard.002",
			"normalTexture":{
				"index":3,
				"scale":0.6766092777252197
			},
			"pbrMetallicRoughness":{
				"baseColorTexture":{
					"index":4
				},
				"metallicFactor":0.2327566295862198,
				"metallicRoughnessTexture":{
					"index":5
				},
				"roughnessFactor":0.8164532780647278
			}
		},
		{
			"doubleSided":true,
			"name":"Mouse.002",
			"pbrMetallicRoughness":{
				"baseColorTexture":{
					"index":6
				},
				"metallicFactor":0,
				"roughnessFactor":0.1841152459383011
			}
		}
	],
	"meshes":[
		{
			"name":"Base_Base_0.002",
			"primitives":[
				{
					"attributes":{
						"POSITION":0,
						"NORMAL":1,
						"TEXCOORD_0":2
					},
					"indices":3,
					"material":0
				}
			]
		},
		{
			"name":"Display_iMac_0.002",
			"primitives":[
				{
					"attributes":{
						"POSITION":4,
						"NORMAL":5,
						"TEXCOORD_0":6
					},
					"indices":7,
					"material":1
				}
			]
		},
		{
			"name":"Keyboard_Keyboard_0.002",
			"primitives":[
				{
					"attributes":{
						"POSITION":8,
						"NORMAL":9,
						"TEXCOORD_0":10
					},
					"indices":11,
					"material":2
				}
			]
		},
		{
			"name":"Mouse.001_Mouse_0.002",
			"primitives":[
				{
					"attributes":{
						"POSITION":12,
						"NORMAL":13,
						"TEXCOORD_0":14
					},
					"indices":15,
					"material":3
				}
			]
		}
	],
	"textures":[
		{
			"sampler":0,
			"source":0
		},
		{
			"sampler":0,
			"source":1
		},
		{
			"sampler":0,
			"source":2
		},
		{
			"sampler":0,
			"source":3
		},
		{
			"sampler":0,
			"source":4
		},
		{
			"sampler":0,
			"source":5
		},
		{
			"sampler":0,
			"source":6
		}
	],
	"images":[
		{
			"mimeType":"image/jpeg",
			"name":"Base_baseColor",
			"uri":"Base_baseColor.jpg"
		},
		{
			"mimeType":"image/png",
			"name":"iMac_baseColor",
			"uri":"iMac_baseColor.png"
		},
		{
			"mimeType":"image/png",
			"name":"iMac_metallicRoughness",
			"uri":"iMac_metallicRoughness.png"
		},
		{
			"mimeType":"image/png",
			"name":"Keyboard_normal",
			"uri":"Keyboard_normal.png"
		},
		{
			"mimeType":"image/jpeg",
			"name":"Keyboard_baseColor",
			"uri":"Keyboard_baseColor.jpg"
		},
		{
			"mimeType":"image/png",
			"name":"Keyboard_metallicRoughness",
			"uri":"Keyboard_metallicRoughness.png"
		},
		{
			"mimeType":"image/jpeg",
			"name":"Mouse_baseColor",
			"uri":"Mouse_baseColor.jpg"
		}
	],
	"accessors":[
		{
			"bufferView":0,
			"componentType":5126,
			"count":464,
			"max":[
				0.27695563435554504,
				0.34016096591949463,
				0.8364781141281128
			],
			"min":[
				-0.27695563435554504,
				-0.25486308336257935,
				-0.0018446333706378937
			],
			"type":"VEC3"
		},
		{
			"bufferView":1,
			"componentType":5126,
			"count":464,
			"type":"VEC3"
		},
		{
			"bufferView":2,
			"componentType":5126,
			"count":464,
			"type":"VEC2"
		},
		{
			"bufferView":3,
			"componentType":5123,
			"count":1260,
			"type":"SCALAR"
		},
		{
			"bufferView":4,
			"componentType":5126,
			"count":138,
			"max":[
				0.9424600601196289,
				0.11168233305215836,
				0.6500598192214966
			],
			"min":[
				-0.9424600601196289,
				-0.06487318873405457,
				-0.6501644849777222
			],
			"type":"VEC3"
		},
		{
			"bufferView":5,
			"componentType":5126,
			"count":138,
			"type":"VEC3"
		},
		{
			"bufferView":6,
			"componentType":5126,
			"count":138,
			"type":"VEC2"
		},
		{
			"bufferView":7,
			"componentType":5123,
			"count":504,
			"type":"SCALAR"
		},
		{
			"bufferView":8,
			"componentType":5126,
			"count":454,
			"max":[
				0.4523542523384094,
				0.23557642102241516,
				0.01540212333202362
			],
			"min":[
				-0.4523542523384094,
				-0.1713670790195465,
				-0.02071901597082615
			],
			"type":"VEC3"
		},
		{
			"bufferView":9,
			"componentType":5126,
			"count":454,
			"type":"VEC3"
		},
		{
			"bufferView":10,
			"componentType":5126,
			"count":454,
			"type":"VEC2"
		},
		{
			"bufferView":11,
			"componentType":5123,
			"count":1944,
			"type":"SCALAR"
		},
		{
			"bufferView":12,
			"componentType":5126,
			"count":466,
			"max":[
				0.04535467550158501,
				0.09221401810646057,
				0.014492446556687355
			],
			"min":[
				-0.04535472020506859,
				-0.09224250912666321,
				-0.013673185370862484
			],
			"type":"VEC3"
		},
		{
			"bufferView":13,
			"componentType":5126,
			"count":466,
			"type":"VEC3"
		},
		{
			"bufferView":14,
			"componentType":5126,
			"count":466,
			"type":"VEC2"
		},
		{
			"bufferView":15,
			"componentType":5123,
			"count":1692,
			"type":"SCALAR"
		}
	],
	"bufferViews":[
		{
			"buffer":0,
			"byteLength":5568,
			"byteOffset":0,
			"target":34962
		},
		{
			"buffer":0,
			"byteLength":5568,
			"byteOffset":5568,
			"target":34962
		},
		{
			"buffer":0,
			"byteLength":3712,
			"byteOffset":11136,
			"target":34962
		},
		{
			"buffer":0,
			"byteLength":2520,
			"byteOffset":14848,
			"target":34963
		},
		{
			"buffer":0,
			"byteLength":1656,
			"byteOffset":17368,
			"target":34962
		},
		{
			"buffer":0,
			"byteLength":1656,
			"byteOffset":19024,
			"target":34962
		},
		{
			"buffer":0,
			"byteLength":1104,
			"byteOffset":20680,
			"target":34962
		},
		{
			"buffer":0,
			"byteLength":1008,
			"byteOffset":21784,
			"target":34963
		},
		{
			"buffer":0,
			"byteLength":5448,
			"byteOffset":22792,
			"target":34962
		},
		{
			"buffer":0,
			"byteLength":5448,
			"byteOffset":28240,
			"target":34962
		},
		{
			"buffer":0,
			"byteLength":3632,
			"byteOffset":33688,
			"target":34962
		},
		{
			"buffer":0,
			"byteLength":3888,
			"byteOffset":37320,
			"target":34963
		},
		{
			"buffer":0,
			"byteLength":5592,
			"byteOffset":41208,
			"target":34962
		},
		{
			"buffer":0,
			"byteLength":5592,
			"byteOffset":46800,
			"target":34962
		},
		{
			"buffer":0,
			"byteLength":3728,
			"byteOffset":52392,
			"target":34962
		},
		{
			"buffer":0,
			"byteLength":3384,
			"byteOffset":56120,
			"target":34963
		}
	],
	"samplers":[
		{
			"magFilter":9729,
			"minFilter":9987
		}
	],
	"buffers":[
		{
			"byteLength":59504,
			"uri":"sin_nombre.bin"
		}
	]
}
